<svg xmlns="http://www.w3.org/2000/svg" version="1.1" xmlns:xlink="http://www.w3.org/1999/xlink" width="418.798170473478" height="200" viewBox="-1.0399999618530273 12.880000114440918 98.72000122070312 41.91999816894531"><path d="M16.04 37.48L16.04 37.48Q16.04 39.36 13.92 40.32L13.92 40.32Q12.20 41.12 10.12 41.12L10.12 41.12Q4.40 41.12-0.12 38.76L-0.12 38.76Q-1.04 38.28-1.04 37.60L-1.04 37.60Q-1.04 37.20-0.60 37L-0.60 37Q-0.48 37.08-0.22 37.34Q0.04 37.60 0.48 38.04L0.48 38.04Q0.68 38.24 3.16 38.84L3.16 38.84Q6.56 39.68 9.60 39.68L9.60 39.68Q13.92 39.68 13.92 37.20L13.92 37.20Q13.92 35.76 12.80 35.28L12.80 35.28L3.60 31.32Q0.84 30.12 0.84 26.52L0.84 26.52Q0.84 22.92 4.16 16.20L4.16 16.20Q5.80 13 7.84 13L7.84 13Q10.20 13 12.16 14.84L12.16 14.84Q14.20 16.68 14.36 19L14.36 19Q14.44 20.36 14.50 21.62Q14.56 22.88 14.56 24.12L14.56 24.12Q14.56 26.52 13.68 26.52L13.68 26.52Q12.76 26.52 12.76 25.16L12.76 25.16Q12.76 22.28 12.40 18.80L12.40 18.80Q12.20 17.28 11.28 15.92L11.28 15.92Q10.20 14.28 8.84 14.28L8.84 14.28Q6.88 14.28 4.80 19.48L4.80 19.48Q2.96 24 2.96 26.52L2.96 26.52Q2.96 27.84 3.70 29.02Q4.44 30.20 5.64 30.68L5.64 30.68L12.80 33.68Q16.04 35.08 16.04 37.48ZM21.60 29.44L21.12 28.80Q20.96 26.96 20.12 26.96L20.12 26.96Q19.44 26.96 18.92 28.88L18.92 28.88Q18.76 29.32 18.56 30.04Q18.36 30.76 18.08 31.68L18.08 31.68Q17.44 34.12 17.44 37.72L17.44 37.72Q17.44 38.40 17.72 39L17.72 39Q18.08 39.76 18.64 39.76L18.64 39.76Q19.40 39.32 20.24 36.68L20.24 36.68Q20.56 35.64 20.80 34.74Q21.04 33.84 21.12 33.12L21.12 33.12L21.60 29.44ZM23.56 40L23.56 40Q22.08 40 21.12 37.08L21.12 37.08Q20.08 40.80 18.44 40.80L18.44 40.80Q16.08 40.80 16.20 34.96L16.20 34.96Q16.28 33.40 17.20 29.76L17.20 29.76Q18.36 25.60 19.16 25.60L19.16 25.60Q20.92 25.60 21.40 26.52L21.40 26.52L22.12 27.96L23.52 28.44Q22.52 31.36 22.16 35.60L22.16 35.60Q22.08 36.52 22.32 37.52L22.32 37.52Q22.64 38.92 23.32 38.92L23.32 38.92Q24.68 38.92 27.04 29.08L27.04 29.08Q27.28 28.16 27.60 28.16L27.60 28.16Q27.92 28.16 27.92 28.76L27.92 28.76Q27.92 30.24 26.44 34.80L26.44 34.80Q24.76 40 23.56 40ZM29.92 17.88L29.92 17.88Q29.92 19.36 28.92 19.36L28.92 19.36Q28.28 19.36 27.80 18.84Q27.32 18.32 27.32 17.68L27.32 17.68Q27.32 17.28 27.74 16.84Q28.16 16.40 28.56 16.40L28.56 16.40Q29.92 16.40 29.92 17.88ZM33.20 28.72L33.20 28.72Q33.20 29.72 31.80 34.28L31.80 34.28Q30.76 37.56 30.48 38.20L30.48 38.20Q29.68 39.96 28.56 39.96L28.56 39.96Q27.32 39.96 26.72 38.52L26.72 38.52Q26.28 37.32 26.28 36L26.28 36Q26.28 35.28 26.36 34.20Q26.44 33.12 26.60 31.64L26.60 31.64Q26.76 30.16 26.84 29.06Q26.92 27.96 26.92 27.24L26.92 27.24Q27.20 26.96 27.72 26.96L27.72 26.96Q28.76 26.96 28.76 27.52L28.76 27.52Q28.68 27.84 28.54 28.42Q28.40 29 28.20 29.88L28.20 29.88Q27.44 33.52 27.44 36.08L27.44 36.08Q27.44 38.76 28.64 38.76L28.64 38.76Q29.20 38.76 30 36.76L30 36.76Q30.04 36.72 31.32 32.68L31.32 32.68Q31.52 32.04 31.76 31.16Q32 30.28 32.28 29.12L32.28 29.12Q32.52 28.16 32.84 28.16L32.84 28.16Q33.20 28.16 33.20 28.72ZM35.80 26.40L35.80 26.40Q34.48 26.40 33.36 30.36L33.36 30.36Q32.44 33.68 32.44 35.52L32.44 35.52Q32.44 39.40 33.32 39.40L33.32 39.40Q34.20 39.40 35.36 36.44L35.36 36.44Q35.80 35.32 36.12 34.28Q36.44 33.24 36.64 32.28L36.64 32.28Q36.68 32.04 36.72 31.54Q36.76 31.04 36.84 30.24L36.84 30.24Q36.92 29.60 36.96 29.10Q37 28.60 37 28.20L37 28.20Q37 26.40 35.80 26.40ZM38.56 39.04L38.56 39.04Q39.28 39.04 40.60 35L40.60 35Q41.48 32.36 42.28 29.08L42.28 29.08Q42.52 28.16 42.84 28.16L42.84 28.16Q43.16 28.16 43.16 28.76L43.16 28.76Q43.16 30.12 41.60 34.84L41.60 34.84Q39.84 40.08 38.80 40.08L38.80 40.08Q36.92 40.08 36.56 36.12L36.56 36.12Q36.12 37.24 35.82 37.88Q35.52 38.52 35.40 38.72L35.40 38.72Q34.44 40.52 33.48 40.52L33.48 40.52Q32.24 40.52 31.56 39L31.56 39Q31.04 37.92 31.04 36.36L31.04 36.36Q31.04 33.16 32.28 29.08L32.28 29.08Q33.68 24.56 35.20 24.56L35.20 24.56Q35.72 24.56 36.44 25.16L36.44 25.16Q37.20 25.72 37.24 25.72L37.24 25.72Q37.32 25.72 37.40 25.60L37.40 25.60Q37.64 23.72 38.02 20.88Q38.40 18.04 38.92 14.16L38.92 14.16Q38.80 13.08 39.28 12.92L39.28 12.92Q39.44 12.88 39.96 12.88L39.96 12.88Q40.92 12.88 40.76 14.08L40.76 14.08Q40.52 15.32 40.16 17.26Q39.80 19.20 39.28 21.84L39.28 21.84Q39.24 22.12 39 23.98Q38.76 25.84 38.32 29.36L38.32 29.36Q38 32 37.82 33.68Q37.64 35.36 37.64 36.04L37.64 36.04Q37.72 38.88 38.56 39.04ZM46.20 29.44L45.72 28.80Q45.56 26.96 44.72 26.96L44.72 26.96Q44.04 26.96 43.52 28.88L43.52 28.88Q43.36 29.32 43.16 30.04Q42.96 30.76 42.68 31.68L42.68 31.68Q42.04 34.12 42.04 37.72L42.04 37.72Q42.04 38.40 42.32 39L42.32 39Q42.68 39.76 43.24 39.76L43.24 39.76Q44.00 39.32 44.84 36.68L44.84 36.68Q45.16 35.64 45.40 34.74Q45.64 33.84 45.72 33.12L45.72 33.12L46.20 29.44ZM48.16 40L48.16 40Q46.68 40 45.72 37.08L45.72 37.08Q44.68 40.80 43.04 40.80L43.04 40.80Q40.68 40.80 40.80 34.96L40.80 34.96Q40.88 33.40 41.80 29.76L41.80 29.76Q42.96 25.60 43.76 25.60L43.76 25.60Q45.52 25.60 46.00 26.52L46.00 26.52L46.72 27.96L48.12 28.44Q47.12 31.36 46.76 35.60L46.76 35.60Q46.68 36.52 46.92 37.52L46.92 37.52Q47.24 38.92 47.92 38.92L47.92 38.92Q49.28 38.92 51.64 29.08L51.64 29.08Q51.88 28.16 52.20 28.16L52.20 28.16Q52.52 28.16 52.52 28.76L52.52 28.76Q52.52 30.24 51.04 34.80L51.04 34.80Q49.36 40 48.16 40ZM87.88 15.12L87.88 15.12Q87.84 15.76 87.04 15.76L87.04 15.76Q81.64 15.76 75.88 16.24L75.88 16.24Q75.60 17.68 74.80 24.08L74.80 24.08Q74.28 28.12 73.98 31.28Q73.68 34.44 73.56 36.84L73.56 36.84Q73.48 38.44 73.84 40.68L73.84 40.68Q73.64 40.64 73.36 40.54Q73.08 40.44 72.76 40.28L72.76 40.28Q71.96 39.36 71.96 37.20L71.96 37.20Q71.96 34 72.56 27.64L72.56 27.64Q72.88 24.44 73.04 22.08Q73.20 19.72 73.20 18.12L73.20 18.12Q73.20 17.68 73.18 17.32Q73.16 16.96 73.12 16.64L73.12 16.64Q72.04 16.52 69 16.76L69 16.76Q60 17.44 60 19.16L60 19.16Q60 20.44 63.60 20.44L63.60 20.44Q67.60 20.44 71.16 19.36L71.16 19.36Q70.44 20.56 69.48 20.80L69.48 20.80Q65.72 21.72 63.12 21.72L63.12 21.72Q61.08 21.72 60.08 21.16L60.08 21.16Q58.84 20.40 58.84 18.52L58.84 18.52Q58.84 16.76 60.88 16.20L60.88 16.20L65.84 15.56Q67.56 15.36 70.46 15.16Q73.36 14.96 77.48 14.76L77.48 14.76Q80.80 14.60 83.12 14.54Q85.44 14.48 86.80 14.48L86.80 14.48Q87.92 14.48 87.88 15.12ZM86.20 29.44L85.72 28.80Q85.56 26.96 84.72 26.96L84.72 26.96Q84.04 26.96 83.52 28.88L83.52 28.88Q83.36 29.32 83.16 30.04Q82.96 30.76 82.68 31.68L82.68 31.68Q82.04 34.12 82.04 37.72L82.04 37.72Q82.04 38.40 82.32 39L82.32 39Q82.68 39.76 83.24 39.76L83.24 39.76Q84 39.32 84.84 36.68L84.84 36.68Q85.16 35.64 85.40 34.74Q85.64 33.84 85.72 33.12L85.72 33.12L86.20 29.44ZM88.16 40L88.16 40Q86.68 40 85.72 37.08L85.72 37.08Q84.68 40.80 83.04 40.80L83.04 40.80Q80.68 40.80 80.80 34.96L80.80 34.96Q80.88 33.40 81.80 29.76L81.80 29.76Q82.96 25.60 83.76 25.60L83.76 25.60Q85.52 25.60 86 26.52L86 26.52L86.72 27.96L88.12 28.44Q87.12 31.36 86.76 35.60L86.76 35.60Q86.68 36.52 86.92 37.52L86.92 37.52Q87.24 38.92 87.92 38.92L87.92 38.92Q89.28 38.92 91.64 29.08L91.64 29.08Q91.88 28.16 92.20 28.16L92.20 28.16Q92.52 28.16 92.52 28.76L92.52 28.76Q92.52 30.24 91.04 34.80L91.04 34.80Q89.36 40 88.16 40ZM94.84 16.84L94.84 16.84Q94.84 18.32 93.72 18.32L93.72 18.32Q93.36 18.32 92.90 18Q92.44 17.68 92.44 17.32L92.44 17.32Q92.44 17.16 92.56 16.90Q92.68 16.64 92.84 16.40Q93 16.16 93.20 15.98Q93.40 15.80 93.56 15.80L93.56 15.80Q94.84 15.80 94.84 16.84ZM97.68 43.20L97.68 43.20Q97.68 43.44 97.36 43.88L97.36 43.88Q97.20 43.88 96.82 43.44Q96.44 43 96.16 42.84L96.16 42.84Q95.48 42.48 94.28 42.48L94.28 42.48Q93.96 42.48 93.34 42.58Q92.72 42.68 92.44 42.68L92.44 42.68L92.72 49.12Q92.76 51.36 91.28 53.08L91.28 53.08Q89.80 54.80 87.52 54.80L87.52 54.80Q85.08 54.80 82.96 53.40L82.96 53.40Q80.60 51.76 80.60 49.48L80.60 49.48Q80.60 48.40 81.24 47.60L81.24 47.60Q81.44 47.40 81.70 47.04Q81.96 46.68 82.36 46.24L82.36 46.24Q84.60 43.48 91.20 41.84L91.20 41.84L91 38.32Q91 37.28 91.06 35.80Q91.12 34.32 91.28 32.40L91.28 32.40Q91.56 28.76 91.52 28.44L91.52 28.44Q91.44 28.16 91.40 27.96L91.40 27.96L91.32 27.72Q92.40 27.44 92.84 27.44L92.84 27.44Q93.68 27.44 93.68 28L93.68 28Q93 29.52 92.56 33.64L92.56 33.64Q92.40 35.24 92.32 36.72Q92.24 38.20 92.24 39.56L92.24 39.56Q92.24 40.20 92.26 40.74Q92.28 41.28 92.32 41.76L92.32 41.76Q92.76 41.76 93.62 41.66Q94.48 41.56 94.92 41.56L94.92 41.56Q95.80 41.56 96.64 41.96L96.64 41.96Q97.68 42.52 97.68 43.20ZM91.32 49.40L91.20 42.96Q89.40 43.24 87.24 44.36L87.24 44.36Q81.72 47.20 81.72 49.76L81.72 49.76Q81.72 51.52 83.60 52.68L83.60 52.68Q85.32 53.72 87.12 53.72L87.12 53.72Q89.04 53.72 90.20 52.52Q91.36 51.32 91.32 49.40L91.32 49.40Z" fill="black"></path></svg>